<svg width="16" height="16" viewBox="0 0 16 16" fill="none" xmlns="http://www.w3.org/2000/svg">
<path d="M2.17157 10.6569C0.609476 9.09476 0.609476 6.5621 2.17157 5L5 2.17157C6.5621 0.609476 9.09476 0.609476 10.6569 2.17157L13.4853 5C15.0474 6.5621 15.0474 9.09476 13.4853 10.6569L10.6569 13.4853C9.09476 15.0474 6.5621 15.0474 5 13.4853L2.17157 10.6569Z" fill="#7EFB5F"/>
<path d="M4.29259 1.46447C6.24521 -0.488155 9.41126 -0.488155 11.3639 1.46447L14.192 4.29259C16.1446 6.24522 16.1446 9.41127 14.192 11.3639L11.3639 14.192C9.41127 16.1446 6.24522 16.1446 4.29259 14.192L1.46447 11.3639C-0.488155 9.41126 -0.488155 6.24521 1.46447 4.29259L4.29259 1.46447ZM10.6569 2.17157C9.09476 0.609476 6.5621 0.609476 5 2.17157L2.17157 5L2.02892 5.14904C0.610497 6.71925 0.658388 9.14367 2.17157 10.6569L5 13.4853C6.51335 14.9986 8.93724 15.0455 10.5074 13.6266L10.6569 13.4853L13.4853 10.6569C14.9986 9.14357 15.0453 6.71925 13.6266 5.14904L13.4853 5L10.6569 2.17157Z" fill="#323232"/>
</svg>
